<svg width="200" height="200" viewBox="0 0 200 200" xmlns="http://www.w3.org/2000/svg">
  <!-- Rounded square background -->
  <rect x="10" y="10" width="180" height="180" rx="20" ry="20"
        fill="#071277" stroke="#051050" stroke-width="2"/>

  <!-- Question mark -->
  <g transform="translate(6, 18) scale(0.08)">
    <path transform="translate(800,158)" d="m0 0h39l70 4 29 3 36 6 24 6 35 10 29 9 27 11 28 13 22 12 19 11 24 16 12 9 14 11 15 13 14 14 9 11 8 9 12 16 14 21 12 21 10 19 11 27 10 30 7 26 7 43 3 27 1 14v50l-2 25-5 32-10 40-11 32-13 29-10 19-13 22-12 19-14 19-8 10-11 14-12 14-7 8h-2l-2 4-32 32h-2v2l-8 7-14 14-8 7-13 12-10 8-15 13-11 10-11 9-12 10-14 11-28 24-16 15-10 8-10 9-8 7-15 15h-2v2l-8 7-17 16-13 14-9 11-12 14-7 9-12 16-12 19-14 24-11 24-10 26-7 26-5 30-1 10-1 38-6 12-7 8-11 7-13 5-26 6h-19l-20-4-18-6-10-5-11-8-8-10-4-8-4-16-3-25v-18l2-27 4-29 6-25 8-27 11-28 14-29 10-17 14-22 12-17 9-12 10-13 8-9 9-11 13-15 7-8 26-26 16-14 35-35 8-7 12-11 8-7 12-12 8-7 41-41 7-8 17-17 7-8 10-10 7-8 12-14 12-16 12-17 12-18 16-27 8-16 8-17 10-26 8-28 6-31 5-32 1-19v-15l-3-34-5-35-6-26-6-20-10-24-9-19-8-14-11-17-7-9-9-11-9-10-23-23-17-13-16-11-19-11-23-11-25-10-15-5-27-6-21-3-14-1h-14l-32 2-32 4-31 6-21 6-20 8-16 8-16 10-16 12-13 11-16 15-8 8-7 8-10 12-12 16-7 11-10 15-9 16-20 39-12 24-13 28-16 34-11 22-11 19-10 16-10 13-6 7-10 8-16 9-14 5-16 4h-26l-19-4-16-6-14-8-10-8-9-10-8-13-6-12-5-19-1-7v-42l4-23 12-36 12-25 13-23 13-20 12-17 10-13 11-13 12-12 12-13 10-9 8-8 11-9 12-11 14-11 16-12 20-13 25-15 26-14 16-8 25-11 29-11 34-12 25-7 36-7 38-6 28-3z" fill="#d69f4c"/>
    <path transform="translate(742,1604)" d="m0 0h27l20 2 17 4 19 7 15 8 12 9 12 11 11 14 9 15 8 20 4 15 3 18 1 11v13l-2 17-4 17-6 17-7 13-8 11-12 14-8 7-13 9-19 10-15 5-19 4h-59l-24-4-15-5-19-10-13-10-12-12-10-11-9-14-6-14-6-21-2-12-1-10v-17l2-19 6-25 7-16 9-16 12-14 7-7 13-10 13-8 15-7 17-5 17-3z" fill="#d69f4c"/>
  </g>

  <!-- Exclamation point -->
  <g transform="translate(96, 18) scale(0.08)">
    <path transform="translate(628,158) scale(0.96)" d="m0 0h16l20 3 18 5 14 6 11 7 13 10 11 13 8 16 4 15 1 10-1 40-4 116-5 116-4 87-6 112-5 98-6 95-5 85-7 97-5 68-6 73-6 70-5 51-6 64-3 25-3 15-7 10-8 7-13 6-9 2h-15l-13-3-14-7-5-4-5-8-4-14-4-28-6-62-8-99-9-128-6-98-10-187-8-183-5-127-5-145-3-118v-18l1-18 3-12 6-12 10-13 11-10 15-10 17-8 17-5 17-3z" fill="#d69f4c"/>
    <path transform="translate(609,1608)" d="m0 0h27l20 2 17 4 19 7 15 8 12 9 12 11 11 14 9 15 8 20 4 15 3 18 1 11v13l-2 17-4 17-6 17-7 13-8 11-12 14-8 7-13 9-19 10-15 5-19 4h-59l-24-4-15-5-19-10-13-10-12-12-10-11-9-14-6-14-6-21-2-12-1-10v-17l2-19 6-25 7-16 9-16 12-14 7-7 13-10 13-8 15-7 17-5 17-3z" fill="#d69f4c"/>
  </g>
</svg>
